# xmcd
#
# Track frame offsets: 
#        150
#        13880
#        39218
#        48680
#        63847
#        80309
#        94524
#        102210
#        114566
#        139316
#        151353
#
# Disc length: 2144 seconds
#
# Revision: 0
# Processed by: cddbd v1.5.1PL2 Copyright (c) Steve Scherf et al.
# Submitted via: ExactAudioCopy v0.90b4
#
DISCID=86085e0b
DTITLE=Woodbox Gang - I've Killed Men
DYEAR=2003
DGENRE=Indie
TTITLE0=The Hanging Of Charlie Birger
TTITLE1=Spirits In The Spirits
TTITLE2=Jelly Roll
TTITLE3=S. Glenn Young
TTITLE4=I've Killed Men
TTITLE5=Farmer's Tan - Black Sedan
TTITLE6=Honey Suckle
TTITLE7=Do That Messin' Round
TTITLE8=Death Is Coming
TTITLE9=Beautiful World
TTITLE10=Jelly Roll 1928
EXTD=
EXTT0=
EXTT1=
EXTT2=
EXTT3=
EXTT4=
EXTT5=
EXTT6=
EXTT7=
EXTT8=
EXTT9=
EXTT10=
PLAYORDER=
